<svg width="100" height="100" viewBox="0 0 100 100" fill="none" xmlns="http://www.w3.org/2000/svg">
  <title>Anthony Fu @ antfu.me</title>
  <style>
    @media (prefers-reduced-motion) {
      path {
        animation: none !important;
        stroke-dasharray: unset !important;
      }
    }

    @keyframes grow {
      0% {
        stroke-dashoffset: 1px;
        stroke-dasharray: 0 350px;
        opacity: 0;
      }

      10% {
        opacity: 1;
        transform: translate(0, 1%);
      }

      20% {
        transform: translate(0, 0);
      }

      40% {
        stroke-dasharray: 350px 0;
      }

      85% {
        stroke-dasharray: 350px 0;
      }

      95%,
      to {
        stroke-dasharray: 0 350px;
      }
    }

    path {
      stroke-dashoffset: 1px;
      stroke-dasharray: 350px 0;
      animation: grow 10s ease-out forwards infinite;
      transform-origin: center;
      stroke: #303030;
      animation-delay: 0s;
    }

    @media (prefers-color-scheme:dark) {
      path {
        stroke: #fdfdfd;
      }
    }
  </style>
  <path
  d="m25.01,44.49c.82-7.5,1-15.04,1.73-22.55.23-2.4-.05-7.11,1.8-8.97,2.3-2.32,5.21.25,6.6,2.18,1.13,1.58,2.25,3.22,2.79,5.08s.42,4.02-.75,5.57c-1.46,1.93-4.1,2.46-6.5,2.78-2.91.39-5.88.67-8.79.2-4.42-.73-8.51-3.29-11.09-6.95-.89-1.26-1.62-2.71-1.57-4.25.09-2.63,2.36-4.61,4.53-6.1,5.77-3.97,12.17-7.03,18.89-9.01,2.45-.72,4.98-1.31,7.53-1.2,2.48.11,4.89.87,7.18,1.82,5.15,2.13,9.95,5.27,13.56,9.52,5.04,5.94,7.48,13.72,8.42,21.46.44,3.69.57,7.47-.24,11.09-.93,4.18-3.06,8.01-5.5,11.53-2.97,4.3-6.58,8.38-11.32,10.58-5.75,2.67-12.43,2.28-18.69,1.25-2.65-.44-5.33-.99-7.68-2.31-3.16-1.78-5.41-4.78-8.06-7.26-3.46-3.25-7.69-5.66-12.24-6.99-.96-.28-2.01-.51-2.92-.09-1.76.8-1.75,3.39-.86,5.1,1.94,3.74,6.24,5.53,10.26,6.8,1.79.56,3.72,1.09,5.52.54,2.97-.9,4.37-4.24,5.17-7.24,1.09-4.12,1.76-8.34,2.23-12.58Z"
    stroke="black" stroke-width="1.5" stroke-linecap="round" stroke-linejoin="round" />
</svg>
